<?xml version="1.0" encoding="iso-8859-1"?>
<!-- Generator: Adobe Illustrator 16.0.0, SVG Export Plug-In . SVG Version: 6.00 Build 0)  -->
<!DOCTYPE svg PUBLIC "-//W3C//DTD SVG 1.1//EN" "http://www.w3.org/Graphics/SVG/1.1/DTD/svg11.dtd">
<svg version="1.1" id="Capa_1" xmlns="http://www.w3.org/2000/svg" xmlns:xlink="http://www.w3.org/1999/xlink" x="0px" y="0px"
	 width="612.004px" height="612.004px" viewBox="0 0 612.004 612.004" style="enable-background:new 0 0 612.004 612.004;"
	 xml:space="preserve">
<g>
	<g>
		<path d="M517.851,72.27c-56.146-13.044-113.256,16.492-135.921,66.788l112.936,168.897
			c54.532-1.387,103.126-39.179,114.631-93.924C622.811,150.612,581.776,87.123,517.851,72.27z"/>
		<path d="M171.181,328.971C120.636,371.54,69.765,413.743,19.934,457.13C0.61,473.973-7.036,496.557,7.747,519.99
			c14.58,23.131,37.586,29.141,61.261,15.919c59.345-33.154,118.544-66.606,178.213-100.429L174.27,326.376
			C173.239,327.24,172.208,328.107,171.181,328.971z"/>
		<polygon points="457.399,303.085 372.227,175.705 322.947,102.005 139.729,223.563 196.164,307.966 272.021,421.413 
			322.098,496.305 505.311,374.739 		"/>
	</g>
</g>
<g>
</g>
<g>
</g>
<g>
</g>
<g>
</g>
<g>
</g>
<g>
</g>
<g>
</g>
<g>
</g>
<g>
</g>
<g>
</g>
<g>
</g>
<g>
</g>
<g>
</g>
<g>
</g>
<g>
</g>
</svg>
