<?xml version="1.0" encoding="iso-8859-1"?>
<!-- Generator: Adobe Illustrator 19.0.0, SVG Export Plug-In . SVG Version: 6.00 Build 0)  -->
<svg xmlns="http://www.w3.org/2000/svg" xmlns:xlink="http://www.w3.org/1999/xlink" version="1.1" id="Layer_1" x="0px" y="0px" viewBox="0 0 511.999 511.999" style="enable-background:new 0 0 511.999 511.999;" xml:space="preserve" width="512px" height="512px">
<g>
	<g>
		<path d="M280.725,43.85h-49.451c-4.328,0-7.837,3.509-7.837,7.837c0,4.328,3.509,7.837,7.837,7.837h49.451    c4.328,0,7.837-3.509,7.837-7.837C288.562,47.359,285.053,43.85,280.725,43.85z" fill="#FFFFFF"/>
	</g>
</g>
<g>
	<g>
		<path d="M280.725,77.833h-49.451c-4.328,0-7.837,3.509-7.837,7.837c0,4.328,3.509,7.837,7.837,7.837h49.451    c4.328,0,7.837-3.509,7.837-7.837C288.562,81.342,285.053,77.833,280.725,77.833z" fill="#FFFFFF"/>
	</g>
</g>
<g>
	<g>
		<path d="M280.725,111.818h-49.451c-4.328,0-7.837,3.509-7.837,7.837c0,4.328,3.509,7.837,7.837,7.837h49.451    c4.328,0,7.837-3.509,7.837-7.837C288.562,115.326,285.053,111.818,280.725,111.818z" fill="#FFFFFF"/>
	</g>
</g>
<g>
	<g>
		<path d="M280.725,145.801h-49.451c-4.328,0-7.837,3.509-7.837,7.837c0,4.328,3.509,7.837,7.837,7.837h49.451    c4.328,0,7.837-3.509,7.837-7.837C288.562,149.31,285.053,145.801,280.725,145.801z" fill="#FFFFFF"/>
	</g>
</g>
<g>
	<g>
		<path d="M280.725,179.785h-49.451c-4.328,0-7.837,3.509-7.837,7.837s3.509,7.837,7.837,7.837h49.451    c4.328,0,7.837-3.509,7.837-7.837S285.053,179.785,280.725,179.785z" fill="#FFFFFF"/>
	</g>
</g>
<g>
	<g>
		<path d="M415.346,210.787h-36.821V36.997C378.525,16.596,361.35,0,340.24,0h-27.816c-4.328,0-7.837,3.509-7.837,7.837    c0,4.328,3.509,7.837,7.837,7.837h27.816c12.469,0,22.612,9.565,22.612,21.323v6.854h-41.614c-4.328,0-7.837,3.509-7.837,7.837    c0,4.328,3.509,7.837,7.837,7.837h41.614v18.311h-41.614c-4.328,0-7.837,3.509-7.837,7.837c0,4.328,3.509,7.837,7.837,7.837    h41.614v18.31h-41.614c-4.328,0-7.837,3.509-7.837,7.837c0,4.328,3.509,7.837,7.837,7.837h41.614v18.31h-41.614    c-4.328,0-7.837,3.509-7.837,7.837c0,4.328,3.509,7.837,7.837,7.837h41.614v18.31h-41.614c-4.328,0-7.837,3.509-7.837,7.837    c0,4.328,3.509,7.837,7.837,7.837h41.614v15.329H149.147v-15.329h42.016c4.328,0,7.837-3.509,7.837-7.837    c0-4.328-3.509-7.837-7.837-7.837h-42.016v-18.31h42.016c4.328,0,7.837-3.509,7.837-7.837c0-4.328-3.509-7.837-7.837-7.837    h-42.016v-18.31h42.016c4.328,0,7.837-3.509,7.837-7.837c0-4.328-3.509-7.837-7.837-7.837h-42.016V93.507h42.016    c4.328,0,7.837-3.509,7.837-7.837c0-4.328-3.509-7.837-7.837-7.837h-42.016v-18.31h42.016c4.328,0,7.837-3.509,7.837-7.837    c0-4.328-3.509-7.837-7.837-7.837h-42.016v-6.854c0-11.757,10.143-21.323,22.612-21.323h108.273c4.328,0,7.837-3.509,7.837-7.837    c0-4.328-3.509-7.837-7.837-7.837H171.759c-21.111,0-38.285,16.596-38.285,36.997v173.791h-36.82    c-4.328,0-7.837,3.509-7.837,7.837v29.599v32.855c0,4.328,3.509,7.837,7.837,7.837s7.837-3.509,7.837-7.837v-25.019h28.984v76.424    c0,15.04,12.621,27.277,28.136,27.277h188.78c15.515,0,28.136-12.237,28.136-27.277v-76.424h28.983v76.424    c0,29.98-25.624,54.37-57.119,54.37H161.61c-31.496,0-57.119-24.39-57.119-54.37v-20.058c0-4.328-3.509-7.837-7.837-7.837    s-7.837,3.509-7.837,7.837v20.058c0,38.623,32.655,70.044,72.793,70.044h86.553v53.37h-75.225    c-10.193,0-18.485,8.288-18.485,18.476v19.151c0,10.188,8.292,18.476,18.485,18.476h166.123c10.193,0,18.485-8.288,18.485-18.476    v-19.15c0-10.188-8.292-18.476-18.485-18.476h-19.322c-4.328,0-7.837,3.509-7.837,7.837c0,4.328,3.509,7.837,7.837,7.837h19.323    c1.523,0,2.812,1.284,2.812,2.802v19.151c0,1.519-1.287,2.802-2.812,2.802H172.937c-1.523,0-2.812-1.283-2.812-2.802v-19.151    c0-1.519,1.287-2.802,2.812-2.802h116.499c4.328,0,7.837-3.509,7.837-7.837c0-4.328-3.509-7.837-7.837-7.837h-25.6v-53.371h86.553    c40.139,0,72.793-31.421,72.793-70.044v-84.261v-29.598C423.183,214.295,419.674,210.787,415.346,210.787z M133.474,240.385    h-28.984v-13.924h28.984V240.385z M216.534,226.461h0.001h78.928v10.103c0,1.695-1.444,3.126-3.154,3.126h-72.622    c-1.709,0-3.154-1.432-3.154-3.126V226.461z M362.852,332.482L362.852,332.482c0,6.398-5.59,11.604-12.463,11.604H161.61    c-6.872,0-12.462-5.206-12.462-11.604V226.461h51.714v10.103c0,10.366,8.446,18.8,18.827,18.8h72.622    c10.381,0,18.827-8.433,18.827-18.8v-10.103h51.714V332.482z M407.51,240.385h-28.984v-13.924h28.984V240.385z" fill="#FFFFFF"/>
	</g>
</g>
<g>
</g>
<g>
</g>
<g>
</g>
<g>
</g>
<g>
</g>
<g>
</g>
<g>
</g>
<g>
</g>
<g>
</g>
<g>
</g>
<g>
</g>
<g>
</g>
<g>
</g>
<g>
</g>
<g>
</g>
</svg>
